<?xml version="1.0" encoding="UTF-8"?>
<svg xmlns="http://www.w3.org/2000/svg" xmlns:xlink="http://www.w3.org/1999/xlink" version="1.1" width="512" height="512" x="0" y="0" viewBox="0 0 682.667 682.667" style="enable-background:new 0 0 512 512" xml:space="preserve">
  <g transform="matrix(1,0,0,1,0,0)">
    <defs>
      <clipPath id="a">
        <path d="M0 512h512V0H0Z" fill="#000000" opacity="1" data-original="#000000"/>
      </clipPath>
    </defs>
    <g clip-path="url(#a)" transform="matrix(1.33333 0 0 -1.33333 0 682.667)">
      <path d="m0 0 4.653 111.516h271.249l15.65-375.579H125.273" style="stroke-width:30;stroke-linecap:butt;stroke-linejoin:miter;stroke-miterlimit:10;stroke-dasharray:none;stroke-opacity:1" transform="translate(168.82 279.058)" fill="none" stroke="#000000" stroke-width="30" stroke-linecap="butt" stroke-linejoin="miter" stroke-miterlimit="10" stroke-dasharray="none" stroke-opacity="" data-original="#000000"/>
      <path d="M0 0h163.681" style="stroke-width:30;stroke-linecap:butt;stroke-linejoin:miter;stroke-miterlimit:10;stroke-dasharray:none;stroke-opacity:1" transform="translate(294.092 77.595)" fill="none" stroke="#000000" stroke-width="30" stroke-linecap="butt" stroke-linejoin="miter" stroke-miterlimit="10" stroke-dasharray="none" stroke-opacity="" data-original="#000000"/>
      <path d="M0 0v83.844c0 36.299 29.426 65.725 65.726 65.725 36.299 0 65.726-29.426 65.726-65.725V0" style="stroke-width:30;stroke-linecap:butt;stroke-linejoin:miter;stroke-miterlimit:10;stroke-dasharray:none;stroke-opacity:1" transform="translate(243.37 347.435)" fill="none" stroke="#000000" stroke-width="30" stroke-linecap="butt" stroke-linejoin="miter" stroke-miterlimit="10" stroke-dasharray="none" stroke-opacity="" data-original="#000000"/>
      <path d="M294.092 15.049H51.628v264.009h242.464z" style="stroke-width:30;stroke-linecap:butt;stroke-linejoin:miter;stroke-miterlimit:10;stroke-dasharray:none;stroke-opacity:1" fill="none" stroke="#000000" stroke-width="30" stroke-linecap="butt" stroke-linejoin="miter" stroke-miterlimit="10" stroke-dasharray="none" stroke-opacity="" data-original="#000000"/>
      <path d="M0 0v-49.703c0-30.718 24.902-55.62 55.62-55.62 30.719 0 55.621 24.902 55.621 55.62V0" style="stroke-width:30;stroke-linecap:butt;stroke-linejoin:miter;stroke-miterlimit:10;stroke-dasharray:none;stroke-opacity:1" transform="translate(117.24 279.058)" fill="none" stroke="#000000" stroke-width="30" stroke-linecap="butt" stroke-linejoin="miter" stroke-miterlimit="10" stroke-dasharray="none" stroke-opacity="" data-original="#000000"/>
    </g>
  </g>
</svg>
