<svg xmlns="http://www.w3.org/2000/svg" xmlns:xlink="http://www.w3.org/1999/xlink" width="300" zoomAndPan="magnify" viewBox="0 0 224.87999 88.499997" height="118" preserveAspectRatio="xMidYMid meet" version="1.2"><defs><clipPath id="3df8bebb44"><path d="M 11 15 L 75.152344 15 L 75.152344 87.394531 L 11 87.394531 Z M 11 15 "/></clipPath><clipPath id="a8b992d91f"><path d="M 1.316406 18 L 20 18 L 20 87 L 1.316406 87 Z M 1.316406 18 "/></clipPath></defs><g id="9b1c49fc8f"><g clip-rule="nonzero" clip-path="url(#3df8bebb44)"><path style=" stroke:none;fill-rule:nonzero;fill:#c33236;fill-opacity:1;" d="M 75.007812 68.335938 C 70.832031 70.097656 66.632812 71.796875 62.429688 73.484375 L 56.121094 75.984375 C 55.066406 76.398438 54.023438 76.84375 52.941406 77.167969 C 51.863281 77.503906 50.78125 77.820312 49.710938 78.179688 L 23.933594 86.550781 L 22.195312 87.117188 L 21.925781 85.3125 L 12 19.675781 L 11.75 18.011719 L 13.429688 17.898438 L 40.195312 16.089844 L 43.542969 15.855469 C 44.65625 15.757812 45.769531 15.640625 46.890625 15.671875 L 53.613281 15.675781 C 58.09375 15.6875 62.582031 15.738281 67.066406 15.824219 C 62.632812 16.515625 58.195312 17.167969 53.753906 17.78125 L 47.09375 18.691406 C 45.988281 18.871094 44.867188 18.90625 43.75 18.957031 L 40.40625 19.179688 L 13.636719 20.988281 L 15.066406 19.210938 L 24.988281 84.847656 L 22.976562 83.605469 L 48.753906 75.234375 C 49.828125 74.894531 50.894531 74.515625 51.960938 74.152344 C 53.027344 73.777344 54.136719 73.527344 55.230469 73.242188 L 61.804688 71.558594 C 66.195312 70.453125 70.589844 69.363281 75.007812 68.335938 "/></g><path style=" stroke:none;fill-rule:nonzero;fill:#c33236;fill-opacity:1;" d="M 27.742188 30.117188 L 25.839844 17.527344 C 25.265625 13.746094 26.214844 10.019531 28.503906 7.039062 C 30.792969 4.054688 34.152344 2.175781 37.960938 1.753906 C 45.757812 0.882812 53.058594 6.484375 54.234375 14.238281 L 56.136719 26.828125 L 53.074219 27.292969 L 51.167969 14.703125 C 50.242188 8.570312 44.480469 4.140625 38.304688 4.832031 C 35.34375 5.160156 32.734375 6.617188 30.960938 8.925781 C 29.1875 11.234375 28.457031 14.125 28.902344 17.0625 L 30.804688 29.65625 L 27.742188 30.117188 "/><path style=" stroke:none;fill-rule:nonzero;fill:#c33236;fill-opacity:1;" d="M 50.605469 27.507812 C 50.9375 29.703125 52.996094 31.285156 55.207031 31.039062 C 57.414062 30.792969 58.9375 28.8125 58.605469 26.617188 C 58.273438 24.417969 56.210938 22.839844 54.003906 23.085938 C 51.792969 23.332031 50.273438 25.3125 50.605469 27.507812 "/><path style=" stroke:none;fill-rule:nonzero;fill:#c33236;fill-opacity:1;" d="M 25.273438 30.332031 C 25.605469 32.53125 27.664062 34.109375 29.875 33.863281 C 32.085938 33.617188 33.605469 31.636719 33.273438 29.441406 C 32.941406 27.242188 30.882812 25.664062 28.671875 25.910156 C 26.464844 26.15625 24.941406 28.136719 25.273438 30.332031 "/><g clip-rule="nonzero" clip-path="url(#a8b992d91f)"><path style=" stroke:none;fill-rule:nonzero;fill:#c33236;fill-opacity:1;" d="M 9.164062 18.992188 C 9.300781 20.339844 9.410156 21.683594 9.496094 23.027344 C 9.601562 24.375 9.660156 25.714844 9.730469 27.054688 C 9.753906 27.726562 9.820312 28.398438 9.808594 29.066406 C 9.792969 29.398438 9.726562 29.726562 9.6875 30.054688 C 9.640625 30.386719 9.613281 30.714844 9.582031 31.046875 L 9.207031 35.019531 L 7.707031 50.898438 L 4.710938 82.660156 L 2.402344 81.167969 C 2.660156 81.027344 2.832031 80.945312 3.042969 80.847656 C 3.246094 80.753906 3.445312 80.664062 3.648438 80.582031 C 4.050781 80.414062 4.457031 80.269531 4.871094 80.136719 C 5.699219 79.882812 6.539062 79.664062 7.398438 79.507812 C 8.269531 79.386719 9.160156 79.464844 10.03125 79.566406 C 10.902344 79.679688 11.757812 79.882812 12.578125 80.164062 C 14.226562 80.734375 15.691406 81.6875 16.875 82.835938 C 18.066406 83.992188 18.992188 85.335938 19.707031 86.746094 C 18.636719 85.574219 17.4375 84.5625 16.144531 83.785156 C 14.847656 83.015625 13.441406 82.542969 12.039062 82.363281 C 11.332031 82.277344 10.628906 82.265625 9.929688 82.324219 C 9.230469 82.367188 8.550781 82.539062 7.863281 82.648438 C 7.175781 82.722656 6.480469 82.867188 5.8125 83.089844 C 5.476562 83.195312 5.144531 83.3125 4.824219 83.449219 C 4.664062 83.511719 4.503906 83.582031 4.351562 83.65625 C 4.203125 83.722656 4.023438 83.8125 3.9375 83.859375 L 1.351562 85.285156 L 1.628906 82.367188 L 4.625 50.609375 L 6.125 34.726562 L 6.496094 30.757812 C 6.527344 30.425781 6.5625 30.09375 6.582031 29.761719 C 6.605469 29.429688 6.597656 29.097656 6.648438 28.769531 C 6.757812 28.109375 6.953125 27.460938 7.101562 26.808594 C 7.417969 25.503906 7.726562 24.195312 8.082031 22.894531 C 8.417969 21.589844 8.777344 20.289062 9.164062 18.992188 "/></g><g style="fill:#100f0d;fill-opacity:1;"><g transform="translate(43.48924, 65.902062)"><path style="stroke:none" d="M 3.328125 -2.078125 L 3.328125 -23.609375 C 3.328125 -24.242188 3.546875 -24.785156 3.984375 -25.234375 C 4.429688 -25.679688 4.976562 -25.90625 5.625 -25.90625 L 20.71875 -25.90625 C 21.289062 -25.90625 21.78125 -25.695312 22.1875 -25.28125 C 22.59375 -24.875 22.796875 -24.390625 22.796875 -23.828125 C 22.796875 -23.265625 22.59375 -22.773438 22.1875 -22.359375 C 21.78125 -21.953125 21.289062 -21.75 20.71875 -21.75 L 7.875 -21.75 L 7.875 -14.6875 L 19.0625 -14.6875 C 19.625 -14.6875 20.109375 -14.484375 20.515625 -14.078125 C 20.921875 -13.671875 21.125 -13.179688 21.125 -12.609375 C 21.125 -12.046875 20.921875 -11.5625 20.515625 -11.15625 C 20.109375 -10.75 19.625 -10.546875 19.0625 -10.546875 L 7.875 -10.546875 L 7.875 -2.078125 C 7.875 -1.429688 7.660156 -0.890625 7.234375 -0.453125 C 6.804688 -0.0234375 6.269531 0.1875 5.625 0.1875 C 4.976562 0.1875 4.429688 -0.0234375 3.984375 -0.453125 C 3.546875 -0.890625 3.328125 -1.429688 3.328125 -2.078125 Z M 3.328125 -2.078125 "/></g></g><g style="fill:#100f0d;fill-opacity:1;"><g transform="translate(63.910982, 65.902062)"><path style="stroke:none" d="M 3.078125 -17.5 C 3.078125 -18.144531 3.285156 -18.679688 3.703125 -19.109375 C 4.117188 -19.546875 4.648438 -19.765625 5.296875 -19.765625 C 5.929688 -19.765625 6.460938 -19.546875 6.890625 -19.109375 C 7.328125 -18.679688 7.546875 -18.144531 7.546875 -17.5 L 7.546875 -2.03125 C 7.546875 -1.394531 7.328125 -0.863281 6.890625 -0.4375 C 6.460938 -0.0195312 5.929688 0.1875 5.296875 0.1875 C 4.671875 0.1875 4.144531 -0.0195312 3.71875 -0.4375 C 3.289062 -0.863281 3.078125 -1.394531 3.078125 -2.03125 Z M 5.296875 -26.96875 C 6.003906 -26.96875 6.601562 -26.769531 7.09375 -26.375 C 7.59375 -25.976562 7.84375 -25.453125 7.84375 -24.796875 L 7.84375 -24.5625 C 7.84375 -23.894531 7.59375 -23.359375 7.09375 -22.953125 C 6.601562 -22.546875 6.003906 -22.34375 5.296875 -22.34375 C 4.578125 -22.34375 3.96875 -22.546875 3.46875 -22.953125 C 2.976562 -23.359375 2.734375 -23.894531 2.734375 -24.5625 L 2.734375 -24.796875 C 2.734375 -25.453125 2.976562 -25.976562 3.46875 -26.375 C 3.96875 -26.769531 4.578125 -26.96875 5.296875 -26.96875 Z M 5.296875 -26.96875 "/></g></g><g style="fill:#100f0d;fill-opacity:1;"><g transform="translate(70.643453, 65.902062)"><path style="stroke:none" d="M 3.078125 -24.96875 C 3.078125 -25.59375 3.285156 -26.117188 3.703125 -26.546875 C 4.117188 -26.972656 4.648438 -27.1875 5.296875 -27.1875 C 5.929688 -27.1875 6.460938 -26.972656 6.890625 -26.546875 C 7.328125 -26.117188 7.546875 -25.59375 7.546875 -24.96875 L 7.546875 -2.03125 C 7.546875 -1.394531 7.328125 -0.863281 6.890625 -0.4375 C 6.460938 -0.0195312 5.929688 0.1875 5.296875 0.1875 C 4.671875 0.1875 4.144531 -0.0195312 3.71875 -0.4375 C 3.289062 -0.863281 3.078125 -1.394531 3.078125 -2.03125 Z M 3.078125 -24.96875 "/></g></g><g style="fill:#100f0d;fill-opacity:1;"><g transform="translate(77.375924, 65.902062)"><path style="stroke:none" d="M 11.90625 -19.9375 C 13.46875 -19.9375 14.789062 -19.707031 15.875 -19.25 C 16.957031 -18.800781 17.921875 -18.21875 18.765625 -17.5 C 18.910156 -17.375 19.0625 -17.175781 19.21875 -16.90625 C 19.382812 -16.632812 19.46875 -16.316406 19.46875 -15.953125 C 19.46875 -15.378906 19.257812 -14.894531 18.84375 -14.5 C 18.4375 -14.101562 17.953125 -13.90625 17.390625 -13.90625 C 16.847656 -13.90625 16.40625 -14.054688 16.0625 -14.359375 C 15.488281 -14.847656 14.867188 -15.242188 14.203125 -15.546875 C 13.535156 -15.859375 12.757812 -16.015625 11.875 -16.015625 C 11.0625 -16.015625 10.304688 -15.847656 9.609375 -15.515625 C 8.921875 -15.179688 8.320312 -14.738281 7.8125 -14.1875 C 7.3125 -13.632812 6.921875 -12.976562 6.640625 -12.21875 C 6.359375 -11.46875 6.21875 -10.664062 6.21875 -9.8125 L 6.21875 -9.734375 C 6.21875 -8.867188 6.359375 -8.050781 6.640625 -7.28125 C 6.921875 -6.519531 7.320312 -5.851562 7.84375 -5.28125 C 8.363281 -4.71875 8.976562 -4.273438 9.6875 -3.953125 C 10.40625 -3.640625 11.195312 -3.484375 12.0625 -3.484375 C 13.8125 -3.484375 15.265625 -4.0625 16.421875 -5.21875 C 16.546875 -5.34375 16.710938 -5.453125 16.921875 -5.546875 C 17.128906 -5.648438 17.375 -5.703125 17.65625 -5.703125 C 18.195312 -5.703125 18.648438 -5.507812 19.015625 -5.125 C 19.390625 -4.738281 19.578125 -4.273438 19.578125 -3.734375 C 19.578125 -3.140625 19.363281 -2.671875 18.9375 -2.328125 C 18.082031 -1.492188 17.09375 -0.820312 15.96875 -0.3125 C 14.84375 0.1875 13.46875 0.4375 11.84375 0.4375 C 10.382812 0.4375 9.035156 0.175781 7.796875 -0.34375 C 6.566406 -0.875 5.5 -1.597656 4.59375 -2.515625 C 3.695312 -3.429688 2.992188 -4.503906 2.484375 -5.734375 C 1.984375 -6.960938 1.734375 -8.269531 1.734375 -9.65625 L 1.734375 -9.734375 C 1.734375 -11.109375 1.984375 -12.421875 2.484375 -13.671875 C 2.992188 -14.921875 3.707031 -16.003906 4.625 -16.921875 C 5.539062 -17.847656 6.613281 -18.582031 7.84375 -19.125 C 9.070312 -19.664062 10.425781 -19.9375 11.90625 -19.9375 Z M 11.90625 -19.9375 "/></g></g><g style="fill:#100f0d;fill-opacity:1;"><g transform="translate(94.652836, 65.902062)"><path style="stroke:none" d="M 2.8125 -24.96875 C 2.8125 -25.59375 3.019531 -26.117188 3.4375 -26.546875 C 3.851562 -26.972656 4.382812 -27.1875 5.03125 -27.1875 C 5.675781 -27.1875 6.210938 -26.972656 6.640625 -26.546875 C 7.066406 -26.117188 7.28125 -25.59375 7.28125 -24.96875 L 7.28125 -10.546875 L 15.6875 -18.796875 C 15.976562 -19.085938 16.269531 -19.320312 16.5625 -19.5 C 16.863281 -19.675781 17.210938 -19.765625 17.609375 -19.765625 C 18.203125 -19.765625 18.675781 -19.554688 19.03125 -19.140625 C 19.394531 -18.734375 19.578125 -18.257812 19.578125 -17.71875 C 19.578125 -17.351562 19.488281 -17.019531 19.3125 -16.71875 C 19.144531 -16.425781 18.898438 -16.132812 18.578125 -15.84375 L 13.390625 -11.0625 L 19.3125 -3.328125 C 19.507812 -3.054688 19.65625 -2.804688 19.75 -2.578125 C 19.851562 -2.359375 19.90625 -2.113281 19.90625 -1.84375 C 19.90625 -1.226562 19.691406 -0.734375 19.265625 -0.359375 C 18.847656 0.00390625 18.359375 0.1875 17.796875 0.1875 C 17.347656 0.1875 16.976562 0.109375 16.6875 -0.046875 C 16.394531 -0.210938 16.113281 -0.46875 15.84375 -0.8125 L 10.25 -8.25 L 7.28125 -5.4375 L 7.28125 -2.03125 C 7.28125 -1.394531 7.066406 -0.863281 6.640625 -0.4375 C 6.210938 -0.0195312 5.675781 0.1875 5.03125 0.1875 C 4.414062 0.1875 3.890625 -0.0195312 3.453125 -0.4375 C 3.023438 -0.863281 2.8125 -1.394531 2.8125 -2.03125 Z M 2.8125 -24.96875 "/></g></g><g style="fill:#100f0d;fill-opacity:1;"><g transform="translate(112.262732, 65.902062)"><path style="stroke:none" d="M 5.03125 -27.1875 C 5.675781 -27.1875 6.210938 -26.976562 6.640625 -26.5625 C 7.066406 -26.144531 7.28125 -25.613281 7.28125 -24.96875 L 7.28125 -16.28125 C 8 -17.289062 8.890625 -18.148438 9.953125 -18.859375 C 11.015625 -19.578125 12.347656 -19.9375 13.953125 -19.9375 C 15.109375 -19.9375 16.226562 -19.710938 17.3125 -19.265625 C 18.394531 -18.828125 19.351562 -18.175781 20.1875 -17.3125 C 21.03125 -16.445312 21.710938 -15.382812 22.234375 -14.125 C 22.753906 -12.875 23.015625 -11.4375 23.015625 -9.8125 L 23.015625 -9.734375 C 23.015625 -8.097656 22.757812 -6.648438 22.25 -5.390625 C 21.75 -4.140625 21.070312 -3.082031 20.21875 -2.21875 C 19.363281 -1.351562 18.394531 -0.695312 17.3125 -0.25 C 16.226562 0.1875 15.109375 0.40625 13.953125 0.40625 C 12.316406 0.40625 10.96875 0.0625 9.90625 -0.625 C 8.851562 -1.320312 7.976562 -2.125 7.28125 -3.03125 L 7.28125 -2.03125 C 7.28125 -1.414062 7.066406 -0.890625 6.640625 -0.453125 C 6.210938 -0.0234375 5.675781 0.1875 5.03125 0.1875 C 4.414062 0.1875 3.890625 -0.0234375 3.453125 -0.453125 C 3.023438 -0.890625 2.8125 -1.414062 2.8125 -2.03125 L 2.8125 -24.96875 C 2.8125 -25.613281 3.019531 -26.144531 3.4375 -26.5625 C 3.851562 -26.976562 4.382812 -27.1875 5.03125 -27.1875 Z M 7.171875 -9.8125 L 7.171875 -9.734375 C 7.171875 -8.796875 7.328125 -7.941406 7.640625 -7.171875 C 7.953125 -6.410156 8.363281 -5.75 8.875 -5.1875 C 9.394531 -4.632812 10 -4.210938 10.6875 -3.921875 C 11.382812 -3.628906 12.113281 -3.484375 12.875 -3.484375 C 13.632812 -3.484375 14.351562 -3.628906 15.03125 -3.921875 C 15.71875 -4.210938 16.3125 -4.625 16.8125 -5.15625 C 17.320312 -5.6875 17.722656 -6.335938 18.015625 -7.109375 C 18.316406 -7.890625 18.46875 -8.765625 18.46875 -9.734375 L 18.46875 -9.8125 C 18.46875 -10.75 18.316406 -11.601562 18.015625 -12.375 C 17.722656 -13.15625 17.320312 -13.816406 16.8125 -14.359375 C 16.3125 -14.898438 15.71875 -15.316406 15.03125 -15.609375 C 14.351562 -15.910156 13.632812 -16.0625 12.875 -16.0625 C 12.113281 -16.0625 11.382812 -15.910156 10.6875 -15.609375 C 10 -15.316406 9.394531 -14.890625 8.875 -14.328125 C 8.363281 -13.773438 7.953125 -13.117188 7.640625 -12.359375 C 7.328125 -11.597656 7.171875 -10.75 7.171875 -9.8125 Z M 7.171875 -9.8125 "/></g></g><g style="fill:#100f0d;fill-opacity:1;"><g transform="translate(133.239444, 65.902062)"><path style="stroke:none" d="M 1.515625 -5.703125 C 1.515625 -6.753906 1.710938 -7.675781 2.109375 -8.46875 C 2.503906 -9.257812 3.050781 -9.914062 3.75 -10.4375 C 4.457031 -10.957031 5.3125 -11.34375 6.3125 -11.59375 C 7.3125 -11.851562 8.398438 -11.984375 9.578125 -11.984375 C 10.691406 -11.984375 11.65625 -11.910156 12.46875 -11.765625 C 13.28125 -11.617188 14.070312 -11.421875 14.84375 -11.171875 L 14.84375 -11.65625 C 14.84375 -13.0625 14.425781 -14.117188 13.59375 -14.828125 C 12.769531 -15.546875 11.566406 -15.90625 9.984375 -15.90625 C 9.117188 -15.90625 8.34375 -15.820312 7.65625 -15.65625 C 6.96875 -15.5 6.300781 -15.328125 5.65625 -15.140625 C 5.414062 -15.054688 5.179688 -15.015625 4.953125 -15.015625 C 4.441406 -15.015625 4 -15.191406 3.625 -15.546875 C 3.257812 -15.910156 3.078125 -16.351562 3.078125 -16.875 C 3.078125 -17.289062 3.191406 -17.660156 3.421875 -17.984375 C 3.660156 -18.304688 3.953125 -18.523438 4.296875 -18.640625 C 5.234375 -18.992188 6.191406 -19.273438 7.171875 -19.484375 C 8.160156 -19.691406 9.296875 -19.796875 10.578125 -19.796875 C 13.316406 -19.796875 15.429688 -19.128906 16.921875 -17.796875 C 18.421875 -16.460938 19.171875 -14.390625 19.171875 -11.578125 L 19.171875 -1.96875 C 19.171875 -1.34375 18.957031 -0.828125 18.53125 -0.421875 C 18.113281 -0.015625 17.597656 0.1875 16.984375 0.1875 C 16.335938 0.1875 15.8125 -0.00390625 15.40625 -0.390625 C 15 -0.773438 14.796875 -1.210938 14.796875 -1.703125 L 14.796875 -2.4375 C 14.128906 -1.65625 13.273438 -0.984375 12.234375 -0.421875 C 11.203125 0.128906 9.9375 0.40625 8.4375 0.40625 C 7.519531 0.40625 6.640625 0.273438 5.796875 0.015625 C 4.960938 -0.242188 4.226562 -0.625 3.59375 -1.125 C 2.96875 -1.632812 2.460938 -2.265625 2.078125 -3.015625 C 1.703125 -3.765625 1.515625 -4.632812 1.515625 -5.625 Z M 5.890625 -5.890625 L 5.890625 -5.8125 C 5.890625 -4.875 6.242188 -4.144531 6.953125 -3.625 C 7.671875 -3.101562 8.582031 -2.84375 9.6875 -2.84375 C 10.425781 -2.84375 11.117188 -2.941406 11.765625 -3.140625 C 12.410156 -3.335938 12.957031 -3.617188 13.40625 -3.984375 C 13.863281 -4.359375 14.226562 -4.804688 14.5 -5.328125 C 14.769531 -5.847656 14.90625 -6.414062 14.90625 -7.03125 L 14.90625 -8.359375 C 14.34375 -8.578125 13.679688 -8.757812 12.921875 -8.90625 C 12.171875 -9.0625 11.351562 -9.140625 10.46875 -9.140625 C 8.988281 -9.140625 7.851562 -8.851562 7.0625 -8.28125 C 6.28125 -7.71875 5.890625 -6.921875 5.890625 -5.890625 Z M 5.890625 -5.890625 "/></g></g><g style="fill:#100f0d;fill-opacity:1;"><g transform="translate(151.108322, 65.902062)"><path style="stroke:none" d="M 1.21875 -3.515625 C 1.21875 -4.003906 1.390625 -4.425781 1.734375 -4.78125 C 2.078125 -5.144531 2.507812 -5.328125 3.03125 -5.328125 C 3.425781 -5.328125 3.75 -5.238281 4 -5.0625 C 4.9375 -4.375 5.882812 -3.890625 6.84375 -3.609375 C 7.800781 -3.328125 8.726562 -3.1875 9.625 -3.1875 C 10.582031 -3.1875 11.328125 -3.375 11.859375 -3.75 C 12.390625 -4.132812 12.65625 -4.648438 12.65625 -5.296875 L 12.65625 -5.359375 C 12.65625 -5.734375 12.535156 -6.054688 12.296875 -6.328125 C 12.066406 -6.597656 11.75 -6.832031 11.34375 -7.03125 C 10.9375 -7.226562 10.46875 -7.410156 9.9375 -7.578125 C 9.40625 -7.753906 8.851562 -7.929688 8.28125 -8.109375 C 7.570312 -8.304688 6.851562 -8.539062 6.125 -8.8125 C 5.394531 -9.082031 4.738281 -9.429688 4.15625 -9.859375 C 3.582031 -10.296875 3.109375 -10.832031 2.734375 -11.46875 C 2.367188 -12.113281 2.1875 -12.90625 2.1875 -13.84375 L 2.1875 -13.90625 C 2.1875 -14.84375 2.363281 -15.675781 2.71875 -16.40625 C 3.070312 -17.132812 3.5625 -17.757812 4.1875 -18.28125 C 4.820312 -18.800781 5.566406 -19.195312 6.421875 -19.46875 C 7.273438 -19.738281 8.179688 -19.875 9.140625 -19.875 C 10.171875 -19.875 11.21875 -19.726562 12.28125 -19.4375 C 13.34375 -19.15625 14.34375 -18.769531 15.28125 -18.28125 C 15.601562 -18.101562 15.863281 -17.875 16.0625 -17.59375 C 16.257812 -17.3125 16.359375 -16.972656 16.359375 -16.578125 C 16.359375 -16.054688 16.175781 -15.625 15.8125 -15.28125 C 15.457031 -14.9375 15.019531 -14.765625 14.5 -14.765625 C 14.300781 -14.765625 14.140625 -14.78125 14.015625 -14.8125 C 13.898438 -14.851562 13.765625 -14.910156 13.609375 -14.984375 C 12.796875 -15.398438 12 -15.722656 11.21875 -15.953125 C 10.445312 -16.191406 9.71875 -16.3125 9.03125 -16.3125 C 8.164062 -16.3125 7.492188 -16.132812 7.015625 -15.78125 C 6.535156 -15.425781 6.296875 -14.960938 6.296875 -14.390625 L 6.296875 -14.3125 C 6.296875 -13.945312 6.414062 -13.632812 6.65625 -13.375 C 6.90625 -13.113281 7.234375 -12.878906 7.640625 -12.671875 C 8.046875 -12.460938 8.515625 -12.269531 9.046875 -12.09375 C 9.578125 -11.925781 10.125 -11.742188 10.6875 -11.546875 C 11.40625 -11.328125 12.117188 -11.066406 12.828125 -10.765625 C 13.546875 -10.472656 14.195312 -10.109375 14.78125 -9.671875 C 15.363281 -9.242188 15.835938 -8.71875 16.203125 -8.09375 C 16.578125 -7.476562 16.765625 -6.726562 16.765625 -5.84375 L 16.765625 -5.765625 C 16.765625 -4.734375 16.578125 -3.832031 16.203125 -3.0625 C 15.835938 -2.300781 15.328125 -1.664062 14.671875 -1.15625 C 14.015625 -0.65625 13.242188 -0.273438 12.359375 -0.015625 C 11.472656 0.242188 10.523438 0.375 9.515625 0.375 C 8.253906 0.375 6.984375 0.179688 5.703125 -0.203125 C 4.421875 -0.585938 3.210938 -1.175781 2.078125 -1.96875 C 1.828125 -2.082031 1.617188 -2.273438 1.453125 -2.546875 C 1.296875 -2.816406 1.21875 -3.140625 1.21875 -3.515625 Z M 1.21875 -3.515625 "/></g></g><g style="fill:#100f0d;fill-opacity:1;"><g transform="translate(165.795375, 65.902062)"><path style="stroke:none" d="M 2.8125 -24.96875 C 2.8125 -25.59375 3.019531 -26.117188 3.4375 -26.546875 C 3.851562 -26.972656 4.382812 -27.1875 5.03125 -27.1875 C 5.675781 -27.1875 6.210938 -26.972656 6.640625 -26.546875 C 7.066406 -26.117188 7.28125 -25.59375 7.28125 -24.96875 L 7.28125 -10.546875 L 15.6875 -18.796875 C 15.976562 -19.085938 16.269531 -19.320312 16.5625 -19.5 C 16.863281 -19.675781 17.210938 -19.765625 17.609375 -19.765625 C 18.203125 -19.765625 18.675781 -19.554688 19.03125 -19.140625 C 19.394531 -18.734375 19.578125 -18.257812 19.578125 -17.71875 C 19.578125 -17.351562 19.488281 -17.019531 19.3125 -16.71875 C 19.144531 -16.425781 18.898438 -16.132812 18.578125 -15.84375 L 13.390625 -11.0625 L 19.3125 -3.328125 C 19.507812 -3.054688 19.65625 -2.804688 19.75 -2.578125 C 19.851562 -2.359375 19.90625 -2.113281 19.90625 -1.84375 C 19.90625 -1.226562 19.691406 -0.734375 19.265625 -0.359375 C 18.847656 0.00390625 18.359375 0.1875 17.796875 0.1875 C 17.347656 0.1875 16.976562 0.109375 16.6875 -0.046875 C 16.394531 -0.210938 16.113281 -0.46875 15.84375 -0.8125 L 10.25 -8.25 L 7.28125 -5.4375 L 7.28125 -2.03125 C 7.28125 -1.394531 7.066406 -0.863281 6.640625 -0.4375 C 6.210938 -0.0195312 5.675781 0.1875 5.03125 0.1875 C 4.414062 0.1875 3.890625 -0.0195312 3.453125 -0.4375 C 3.023438 -0.863281 2.8125 -1.394531 2.8125 -2.03125 Z M 2.8125 -24.96875 "/></g></g><g style="fill:#100f0d;fill-opacity:1;"><g transform="translate(183.405271, 65.902062)"><path style="stroke:none" d="M 1.734375 -9.765625 C 1.734375 -11.171875 1.96875 -12.488281 2.4375 -13.71875 C 2.90625 -14.957031 3.566406 -16.039062 4.421875 -16.96875 C 5.273438 -17.894531 6.28125 -18.617188 7.4375 -19.140625 C 8.59375 -19.671875 9.875 -19.9375 11.28125 -19.9375 C 12.832031 -19.9375 14.1875 -19.644531 15.34375 -19.0625 C 16.507812 -18.488281 17.476562 -17.738281 18.25 -16.8125 C 19.03125 -15.882812 19.613281 -14.851562 20 -13.71875 C 20.382812 -12.59375 20.578125 -11.460938 20.578125 -10.328125 C 20.578125 -9.679688 20.363281 -9.160156 19.9375 -8.765625 C 19.519531 -8.367188 19.03125 -8.171875 18.46875 -8.171875 L 6.21875 -8.171875 C 6.46875 -6.546875 7.097656 -5.3125 8.109375 -4.46875 C 9.117188 -3.632812 10.363281 -3.21875 11.84375 -3.21875 C 12.78125 -3.21875 13.625 -3.367188 14.375 -3.671875 C 15.125 -3.984375 15.820312 -4.398438 16.46875 -4.921875 C 16.632812 -5.046875 16.796875 -5.144531 16.953125 -5.21875 C 17.117188 -5.289062 17.335938 -5.328125 17.609375 -5.328125 C 18.109375 -5.328125 18.53125 -5.15625 18.875 -4.8125 C 19.21875 -4.46875 19.390625 -4.035156 19.390625 -3.515625 C 19.390625 -3.242188 19.332031 -2.984375 19.21875 -2.734375 C 19.113281 -2.492188 18.972656 -2.296875 18.796875 -2.140625 C 17.910156 -1.359375 16.90625 -0.734375 15.78125 -0.265625 C 14.65625 0.203125 13.316406 0.4375 11.765625 0.4375 C 10.359375 0.4375 9.046875 0.191406 7.828125 -0.296875 C 6.609375 -0.785156 5.546875 -1.472656 4.640625 -2.359375 C 3.742188 -3.253906 3.035156 -4.320312 2.515625 -5.5625 C 1.992188 -6.8125 1.734375 -8.1875 1.734375 -9.6875 Z M 6.171875 -11.140625 L 16.203125 -11.140625 C 16.128906 -11.847656 15.96875 -12.515625 15.71875 -13.140625 C 15.476562 -13.773438 15.144531 -14.320312 14.71875 -14.78125 C 14.300781 -15.238281 13.800781 -15.601562 13.21875 -15.875 C 12.644531 -16.144531 11.988281 -16.28125 11.25 -16.28125 C 9.84375 -16.28125 8.691406 -15.8125 7.796875 -14.875 C 6.910156 -13.9375 6.367188 -12.691406 6.171875 -11.140625 Z M 6.171875 -11.140625 "/></g></g><g style="fill:#100f0d;fill-opacity:1;"><g transform="translate(201.903121, 65.902062)"><path style="stroke:none" d="M 1.078125 -17.609375 C 1.078125 -18.148438 1.257812 -18.601562 1.625 -18.96875 C 2 -19.34375 2.457031 -19.53125 3 -19.53125 L 3.734375 -19.53125 L 3.734375 -22.859375 C 3.734375 -23.484375 3.945312 -24.007812 4.375 -24.4375 C 4.8125 -24.875 5.351562 -25.09375 6 -25.09375 C 6.613281 -25.09375 7.132812 -24.875 7.5625 -24.4375 C 8 -24.007812 8.21875 -23.484375 8.21875 -22.859375 L 8.21875 -19.53125 L 11.734375 -19.53125 C 12.273438 -19.53125 12.734375 -19.34375 13.109375 -18.96875 C 13.492188 -18.601562 13.6875 -18.148438 13.6875 -17.609375 C 13.6875 -17.066406 13.492188 -16.609375 13.109375 -16.234375 C 12.734375 -15.867188 12.273438 -15.6875 11.734375 -15.6875 L 8.21875 -15.6875 L 8.21875 -6.109375 C 8.21875 -5.242188 8.425781 -4.617188 8.84375 -4.234375 C 9.257812 -3.847656 9.851562 -3.65625 10.625 -3.65625 C 10.894531 -3.65625 11.128906 -3.675781 11.328125 -3.71875 C 11.523438 -3.757812 11.660156 -3.78125 11.734375 -3.78125 C 12.222656 -3.78125 12.65625 -3.597656 13.03125 -3.234375 C 13.414062 -2.878906 13.609375 -2.441406 13.609375 -1.921875 C 13.609375 -1.503906 13.488281 -1.140625 13.25 -0.828125 C 13.019531 -0.523438 12.75 -0.3125 12.4375 -0.1875 C 11.9375 -0.0078125 11.445312 0.117188 10.96875 0.203125 C 10.488281 0.285156 9.953125 0.328125 9.359375 0.328125 C 8.546875 0.328125 7.789062 0.226562 7.09375 0.03125 C 6.40625 -0.164062 5.804688 -0.484375 5.296875 -0.921875 C 4.796875 -1.367188 4.410156 -1.960938 4.140625 -2.703125 C 3.867188 -3.441406 3.734375 -4.34375 3.734375 -5.40625 L 3.734375 -15.6875 L 3 -15.6875 C 2.457031 -15.6875 2 -15.867188 1.625 -16.234375 C 1.257812 -16.609375 1.078125 -17.066406 1.078125 -17.609375 Z M 1.078125 -17.609375 "/></g></g></g></svg>