<svg xmlns="http://www.w3.org/2000/svg" xmlns:xlink="http://www.w3.org/1999/xlink" width="300" zoomAndPan="magnify" viewBox="0 0 224.87999 88.499997" height="118" preserveAspectRatio="xMidYMid meet" version="1.0"><defs><g/><clipPath id="e7fafc2794"><path d="M 0.570312 0 L 224.1875 0 L 224.1875 88.003906 L 0.570312 88.003906 Z M 0.570312 0 " clip-rule="nonzero"/></clipPath><clipPath id="719bb7a8b9"><path d="M 34 15 L 98.183594 15 L 98.183594 87.394531 L 34 87.394531 Z M 34 15 " clip-rule="nonzero"/></clipPath><clipPath id="e8766d1e22"><path d="M 24.347656 18 L 43 18 L 43 87 L 24.347656 87 Z M 24.347656 18 " clip-rule="nonzero"/></clipPath></defs><g clip-path="url(#e7fafc2794)"><path fill="#ffffff" d="M 0.570312 0 L 224.308594 0 L 224.308594 88.003906 L 0.570312 88.003906 Z M 0.570312 0 " fill-opacity="1" fill-rule="nonzero"/><path fill="#ffffff" d="M 0.570312 0 L 224.308594 0 L 224.308594 88.003906 L 0.570312 88.003906 Z M 0.570312 0 " fill-opacity="1" fill-rule="nonzero"/></g><g clip-path="url(#719bb7a8b9)"><path fill="#c33236" d="M 98.039062 68.335938 C 93.863281 70.097656 89.664062 71.796875 85.464844 73.484375 L 79.152344 75.984375 C 78.097656 76.398438 77.054688 76.84375 75.976562 77.167969 C 74.894531 77.503906 73.8125 77.820312 72.742188 78.179688 L 46.964844 86.550781 L 45.230469 87.117188 L 44.957031 85.3125 L 35.035156 19.675781 L 34.78125 18.011719 L 36.460938 17.898438 L 63.226562 16.089844 L 66.574219 15.855469 C 67.6875 15.757812 68.800781 15.640625 69.921875 15.671875 L 76.644531 15.675781 C 81.128906 15.6875 85.613281 15.738281 90.101562 15.824219 C 85.664062 16.515625 81.226562 17.167969 76.789062 17.78125 L 70.125 18.691406 C 69.019531 18.871094 67.898438 18.90625 66.78125 18.957031 L 63.4375 19.179688 L 36.667969 20.988281 L 38.097656 19.210938 L 48.019531 84.847656 L 46.007812 83.605469 L 71.785156 75.234375 C 72.859375 74.894531 73.925781 74.515625 74.992188 74.152344 C 76.058594 73.777344 77.167969 73.527344 78.261719 73.242188 L 84.835938 71.558594 C 89.226562 70.453125 93.621094 69.363281 98.039062 68.335938 " fill-opacity="1" fill-rule="nonzero"/></g><path fill="#c33236" d="M 50.773438 30.117188 L 48.871094 17.527344 C 48.300781 13.746094 49.246094 10.019531 51.535156 7.039062 C 53.824219 4.054688 57.183594 2.175781 60.992188 1.753906 C 68.789062 0.882812 76.089844 6.484375 77.265625 14.238281 L 79.167969 26.828125 L 76.105469 27.292969 L 74.203125 14.703125 C 73.273438 8.570312 67.511719 4.140625 61.335938 4.832031 C 58.375 5.160156 55.765625 6.617188 53.992188 8.925781 C 52.21875 11.234375 51.488281 14.125 51.933594 17.0625 L 53.835938 29.65625 L 50.773438 30.117188 " fill-opacity="1" fill-rule="nonzero"/><path fill="#c33236" d="M 73.636719 27.507812 C 73.96875 29.703125 76.027344 31.285156 78.238281 31.039062 C 80.445312 30.792969 81.96875 28.8125 81.636719 26.617188 C 81.304688 24.417969 79.246094 22.839844 77.035156 23.085938 C 74.824219 23.332031 73.304688 25.3125 73.636719 27.507812 " fill-opacity="1" fill-rule="nonzero"/><path fill="#c33236" d="M 48.304688 30.332031 C 48.636719 32.53125 50.699219 34.109375 52.90625 33.863281 C 55.117188 33.617188 56.636719 31.636719 56.304688 29.441406 C 55.972656 27.242188 53.914062 25.664062 51.703125 25.910156 C 49.496094 26.15625 47.972656 28.136719 48.304688 30.332031 " fill-opacity="1" fill-rule="nonzero"/><g clip-path="url(#e8766d1e22)"><path fill="#c33236" d="M 32.195312 18.992188 C 32.332031 20.339844 32.441406 21.683594 32.527344 23.027344 C 32.632812 24.375 32.691406 25.714844 32.761719 27.054688 C 32.785156 27.726562 32.855469 28.398438 32.839844 29.066406 C 32.828125 29.398438 32.757812 29.726562 32.71875 30.054688 C 32.671875 30.386719 32.644531 30.714844 32.613281 31.046875 L 32.238281 35.019531 L 30.742188 50.898438 L 27.742188 82.660156 L 25.433594 81.167969 C 25.691406 81.027344 25.863281 80.945312 26.074219 80.847656 C 26.277344 80.753906 26.476562 80.664062 26.679688 80.582031 C 27.082031 80.414062 27.488281 80.269531 27.902344 80.136719 C 28.730469 79.882812 29.570312 79.664062 30.433594 79.507812 C 31.300781 79.386719 32.191406 79.464844 33.0625 79.566406 C 33.933594 79.679688 34.789062 79.882812 35.609375 80.164062 C 37.257812 80.734375 38.722656 81.6875 39.910156 82.835938 C 41.097656 83.992188 42.023438 85.335938 42.738281 86.746094 C 41.667969 85.574219 40.46875 84.5625 39.175781 83.785156 C 37.882812 83.015625 36.472656 82.542969 35.070312 82.363281 C 34.367188 82.277344 33.660156 82.265625 32.960938 82.324219 C 32.261719 82.367188 31.582031 82.539062 30.898438 82.648438 C 30.207031 82.722656 29.515625 82.867188 28.84375 83.089844 C 28.511719 83.195312 28.179688 83.3125 27.855469 83.449219 C 27.695312 83.511719 27.535156 83.582031 27.382812 83.65625 C 27.234375 83.722656 27.054688 83.8125 26.96875 83.859375 L 24.382812 85.285156 L 24.660156 82.367188 L 27.65625 50.609375 L 29.15625 34.726562 L 29.53125 30.757812 C 29.558594 30.425781 29.59375 30.09375 29.613281 29.761719 C 29.636719 29.429688 29.628906 29.097656 29.679688 28.769531 C 29.789062 28.109375 29.984375 27.460938 30.132812 26.808594 C 30.449219 25.503906 30.761719 24.195312 31.113281 22.894531 C 31.453125 21.589844 31.808594 20.289062 32.195312 18.992188 " fill-opacity="1" fill-rule="nonzero"/></g><g fill="#100f0d" fill-opacity="1"><g transform="translate(61.213976, 63.602525)"><g><path d="M 16.375 -27.765625 C 18.476562 -27.765625 20.269531 -27.5 21.75 -26.96875 C 23.238281 -26.4375 24.566406 -25.675781 25.734375 -24.6875 C 25.992188 -24.476562 26.210938 -24.21875 26.390625 -23.90625 C 26.578125 -23.59375 26.671875 -23.21875 26.671875 -22.78125 C 26.671875 -22.101562 26.441406 -21.539062 25.984375 -21.09375 C 25.535156 -20.65625 24.972656 -20.4375 24.296875 -20.4375 C 23.703125 -20.4375 23.222656 -20.59375 22.859375 -20.90625 C 21.941406 -21.707031 20.957031 -22.316406 19.90625 -22.734375 C 18.851562 -23.148438 17.664062 -23.359375 16.34375 -23.359375 C 15.039062 -23.359375 13.835938 -23.101562 12.734375 -22.59375 C 11.628906 -22.09375 10.679688 -21.40625 9.890625 -20.53125 C 9.097656 -19.664062 8.472656 -18.644531 8.015625 -17.46875 C 7.554688 -16.300781 7.328125 -15.054688 7.328125 -13.734375 L 7.328125 -13.65625 C 7.328125 -12.320312 7.554688 -11.0625 8.015625 -9.875 C 8.472656 -8.695312 9.097656 -7.671875 9.890625 -6.796875 C 10.679688 -5.929688 11.628906 -5.242188 12.734375 -4.734375 C 13.835938 -4.234375 15.039062 -3.984375 16.34375 -3.984375 C 17.820312 -3.984375 19.082031 -4.195312 20.125 -4.625 C 21.164062 -5.050781 22.179688 -5.707031 23.171875 -6.59375 C 23.347656 -6.75 23.5625 -6.878906 23.8125 -6.984375 C 24.0625 -7.085938 24.328125 -7.140625 24.609375 -7.140625 C 25.203125 -7.140625 25.726562 -6.914062 26.1875 -6.46875 C 26.644531 -6.03125 26.875 -5.507812 26.875 -4.90625 C 26.875 -4.550781 26.796875 -4.226562 26.640625 -3.9375 C 26.484375 -3.65625 26.300781 -3.410156 26.09375 -3.203125 C 24.789062 -2.054688 23.363281 -1.15625 21.8125 -0.5 C 20.269531 0.144531 18.394531 0.46875 16.1875 0.46875 C 14.207031 0.46875 12.363281 0.101562 10.65625 -0.625 C 8.957031 -1.351562 7.488281 -2.347656 6.25 -3.609375 C 5.019531 -4.867188 4.050781 -6.351562 3.34375 -8.0625 C 2.644531 -9.78125 2.296875 -11.617188 2.296875 -13.578125 L 2.296875 -13.65625 C 2.296875 -15.601562 2.640625 -17.425781 3.328125 -19.125 C 4.023438 -20.832031 4.992188 -22.328125 6.234375 -23.609375 C 7.484375 -24.898438 8.972656 -25.914062 10.703125 -26.65625 C 12.429688 -27.394531 14.320312 -27.765625 16.375 -27.765625 Z M 16.375 -27.765625 "/></g></g></g><g fill="#100f0d" fill-opacity="1"><g transform="translate(85.933719, 63.602525)"><g><path d="M 3.234375 -26.328125 C 3.234375 -26.972656 3.453125 -27.523438 3.890625 -27.984375 C 4.335938 -28.441406 4.898438 -28.671875 5.578125 -28.671875 C 6.253906 -28.671875 6.816406 -28.441406 7.265625 -27.984375 C 7.722656 -27.523438 7.953125 -26.972656 7.953125 -26.328125 L 7.953125 -2.140625 C 7.953125 -1.460938 7.722656 -0.90625 7.265625 -0.46875 C 6.816406 -0.03125 6.253906 0.1875 5.578125 0.1875 C 4.929688 0.1875 4.378906 -0.03125 3.921875 -0.46875 C 3.460938 -0.90625 3.234375 -1.460938 3.234375 -2.140625 Z M 3.234375 -26.328125 "/></g></g></g><g fill="#100f0d" fill-opacity="1"><g transform="translate(93.02942, 63.602525)"><g><path d="M 3.234375 -18.453125 C 3.234375 -19.128906 3.453125 -19.691406 3.890625 -20.140625 C 4.335938 -20.597656 4.898438 -20.828125 5.578125 -20.828125 C 6.253906 -20.828125 6.816406 -20.597656 7.265625 -20.140625 C 7.722656 -19.691406 7.953125 -19.128906 7.953125 -18.453125 L 7.953125 -2.140625 C 7.953125 -1.460938 7.722656 -0.90625 7.265625 -0.46875 C 6.816406 -0.03125 6.253906 0.1875 5.578125 0.1875 C 4.929688 0.1875 4.378906 -0.03125 3.921875 -0.46875 C 3.460938 -0.90625 3.234375 -1.460938 3.234375 -2.140625 Z M 5.578125 -28.4375 C 6.328125 -28.4375 6.960938 -28.226562 7.484375 -27.8125 C 8.003906 -27.394531 8.265625 -26.832031 8.265625 -26.125 L 8.265625 -25.890625 C 8.265625 -25.191406 8.003906 -24.628906 7.484375 -24.203125 C 6.960938 -23.773438 6.328125 -23.5625 5.578125 -23.5625 C 4.828125 -23.5625 4.191406 -23.773438 3.671875 -24.203125 C 3.148438 -24.628906 2.890625 -25.191406 2.890625 -25.890625 L 2.890625 -26.125 C 2.890625 -26.832031 3.148438 -27.394531 3.671875 -27.8125 C 4.191406 -28.226562 4.828125 -28.4375 5.578125 -28.4375 Z M 5.578125 -28.4375 "/></g></g></g><g fill="#100f0d" fill-opacity="1"><g transform="translate(100.125121, 63.602525)"><g><path d="M 12.5625 -21.015625 C 14.195312 -21.015625 15.585938 -20.773438 16.734375 -20.296875 C 17.878906 -19.816406 18.890625 -19.203125 19.765625 -18.453125 C 19.921875 -18.316406 20.082031 -18.101562 20.25 -17.8125 C 20.425781 -17.53125 20.515625 -17.195312 20.515625 -16.8125 C 20.515625 -16.207031 20.300781 -15.695312 19.875 -15.28125 C 19.445312 -14.863281 18.929688 -14.65625 18.328125 -14.65625 C 17.753906 -14.65625 17.285156 -14.8125 16.921875 -15.125 C 16.328125 -15.644531 15.675781 -16.066406 14.96875 -16.390625 C 14.269531 -16.722656 13.453125 -16.890625 12.515625 -16.890625 C 11.660156 -16.890625 10.867188 -16.710938 10.140625 -16.359375 C 9.410156 -16.003906 8.78125 -15.535156 8.25 -14.953125 C 7.71875 -14.367188 7.300781 -13.679688 7 -12.890625 C 6.695312 -12.097656 6.546875 -11.242188 6.546875 -10.328125 L 6.546875 -10.25 C 6.546875 -9.34375 6.695312 -8.484375 7 -7.671875 C 7.300781 -6.867188 7.722656 -6.171875 8.265625 -5.578125 C 8.816406 -4.984375 9.46875 -4.515625 10.21875 -4.171875 C 10.96875 -3.835938 11.800781 -3.671875 12.71875 -3.671875 C 14.5625 -3.671875 16.09375 -4.28125 17.3125 -5.5 C 17.445312 -5.625 17.625 -5.738281 17.84375 -5.84375 C 18.0625 -5.945312 18.316406 -6 18.609375 -6 C 19.179688 -6 19.660156 -5.796875 20.046875 -5.390625 C 20.429688 -4.992188 20.625 -4.507812 20.625 -3.9375 C 20.625 -3.3125 20.40625 -2.816406 19.96875 -2.453125 C 19.0625 -1.566406 18.015625 -0.859375 16.828125 -0.328125 C 15.640625 0.203125 14.191406 0.46875 12.484375 0.46875 C 10.941406 0.46875 9.519531 0.191406 8.21875 -0.359375 C 6.925781 -0.921875 5.804688 -1.679688 4.859375 -2.640625 C 3.910156 -3.609375 3.164062 -4.742188 2.625 -6.046875 C 2.09375 -7.347656 1.828125 -8.722656 1.828125 -10.171875 L 1.828125 -10.25 C 1.828125 -11.707031 2.09375 -13.09375 2.625 -14.40625 C 3.164062 -15.71875 3.914062 -16.863281 4.875 -17.84375 C 5.832031 -18.820312 6.960938 -19.59375 8.265625 -20.15625 C 9.566406 -20.726562 11 -21.015625 12.5625 -21.015625 Z M 12.5625 -21.015625 "/></g></g></g><g fill="#100f0d" fill-opacity="1"><g transform="translate(118.333327, 63.602525)"><g><path d="M 2.96875 -26.328125 C 2.96875 -26.972656 3.1875 -27.523438 3.625 -27.984375 C 4.070312 -28.441406 4.628906 -28.671875 5.296875 -28.671875 C 5.972656 -28.671875 6.539062 -28.441406 7 -27.984375 C 7.457031 -27.523438 7.6875 -26.972656 7.6875 -26.328125 L 7.6875 -11.109375 L 16.53125 -19.8125 C 16.84375 -20.125 17.15625 -20.367188 17.46875 -20.546875 C 17.78125 -20.734375 18.144531 -20.828125 18.5625 -20.828125 C 19.1875 -20.828125 19.6875 -20.609375 20.0625 -20.171875 C 20.4375 -19.742188 20.625 -19.25 20.625 -18.6875 C 20.625 -18.289062 20.53125 -17.9375 20.34375 -17.625 C 20.164062 -17.3125 19.910156 -17 19.578125 -16.6875 L 14.125 -11.65625 L 20.359375 -3.515625 C 20.566406 -3.222656 20.722656 -2.957031 20.828125 -2.71875 C 20.929688 -2.488281 20.984375 -2.234375 20.984375 -1.953125 C 20.984375 -1.296875 20.757812 -0.773438 20.3125 -0.390625 C 19.875 -0.00390625 19.359375 0.1875 18.765625 0.1875 C 18.296875 0.1875 17.90625 0.101562 17.59375 -0.0625 C 17.28125 -0.226562 16.976562 -0.492188 16.6875 -0.859375 L 10.796875 -8.703125 L 7.6875 -5.734375 L 7.6875 -2.140625 C 7.6875 -1.460938 7.457031 -0.90625 7 -0.46875 C 6.539062 -0.03125 5.972656 0.1875 5.296875 0.1875 C 4.648438 0.1875 4.097656 -0.03125 3.640625 -0.46875 C 3.191406 -0.90625 2.96875 -1.460938 2.96875 -2.140625 Z M 2.96875 -26.328125 "/></g></g></g><g fill="#100f0d" fill-opacity="1"><g transform="translate(136.892451, 63.602525)"><g><path d="M 2.96875 -2.140625 L 2.96875 -18.453125 C 2.96875 -19.128906 3.1875 -19.691406 3.625 -20.140625 C 4.070312 -20.597656 4.628906 -20.828125 5.296875 -20.828125 C 5.972656 -20.828125 6.539062 -20.597656 7 -20.140625 C 7.457031 -19.691406 7.6875 -19.128906 7.6875 -18.453125 L 7.6875 -17.46875 C 8.019531 -17.9375 8.378906 -18.378906 8.765625 -18.796875 C 9.160156 -19.210938 9.609375 -19.585938 10.109375 -19.921875 C 10.617188 -20.265625 11.191406 -20.53125 11.828125 -20.71875 C 12.472656 -20.914062 13.1875 -21.015625 13.96875 -21.015625 C 15.445312 -21.015625 16.707031 -20.679688 17.75 -20.015625 C 18.789062 -19.359375 19.582031 -18.484375 20.125 -17.390625 C 20.957031 -18.484375 21.929688 -19.359375 23.046875 -20.015625 C 24.160156 -20.679688 25.5 -21.015625 27.0625 -21.015625 C 29.351562 -21.015625 31.128906 -20.332031 32.390625 -18.96875 C 33.648438 -17.601562 34.28125 -15.660156 34.28125 -13.140625 L 34.28125 -2.140625 C 34.28125 -1.460938 34.054688 -0.90625 33.609375 -0.46875 C 33.171875 -0.03125 32.613281 0.1875 31.9375 0.1875 C 31.257812 0.1875 30.691406 -0.03125 30.234375 -0.46875 C 29.785156 -0.90625 29.5625 -1.460938 29.5625 -2.140625 L 29.5625 -11.703125 C 29.5625 -13.335938 29.195312 -14.582031 28.46875 -15.4375 C 27.738281 -16.300781 26.710938 -16.734375 25.390625 -16.734375 C 24.066406 -16.734375 23 -16.296875 22.1875 -15.421875 C 21.382812 -14.554688 20.984375 -13.289062 20.984375 -11.625 L 20.984375 -2.140625 C 20.984375 -1.460938 20.753906 -0.90625 20.296875 -0.46875 C 19.835938 -0.03125 19.285156 0.1875 18.640625 0.1875 C 17.960938 0.1875 17.394531 -0.03125 16.9375 -0.46875 C 16.488281 -0.90625 16.265625 -1.460938 16.265625 -2.140625 L 16.265625 -11.734375 C 16.265625 -13.378906 15.898438 -14.625 15.171875 -15.46875 C 14.441406 -16.3125 13.414062 -16.734375 12.09375 -16.734375 C 10.757812 -16.734375 9.691406 -16.273438 8.890625 -15.359375 C 8.085938 -14.453125 7.6875 -13.207031 7.6875 -11.625 L 7.6875 -2.140625 C 7.6875 -1.460938 7.457031 -0.90625 7 -0.46875 C 6.539062 -0.03125 5.972656 0.1875 5.296875 0.1875 C 4.648438 0.1875 4.097656 -0.03125 3.640625 -0.46875 C 3.191406 -0.90625 2.96875 -1.460938 2.96875 -2.140625 Z M 2.96875 -2.140625 "/></g></g></g><g fill="#100f0d" fill-opacity="1"><g transform="translate(169.878342, 63.602525)"><g><path d="M 1.59375 -6 C 1.59375 -7.125 1.800781 -8.097656 2.21875 -8.921875 C 2.632812 -9.753906 3.210938 -10.441406 3.953125 -10.984375 C 4.691406 -11.535156 5.585938 -11.945312 6.640625 -12.21875 C 7.703125 -12.5 8.851562 -12.640625 10.09375 -12.640625 C 11.269531 -12.640625 12.285156 -12.5625 13.140625 -12.40625 C 14.003906 -12.25 14.835938 -12.039062 15.640625 -11.78125 L 15.640625 -12.28125 C 15.640625 -13.769531 15.203125 -14.890625 14.328125 -15.640625 C 13.460938 -16.390625 12.195312 -16.765625 10.53125 -16.765625 C 9.625 -16.765625 8.804688 -16.679688 8.078125 -16.515625 C 7.347656 -16.347656 6.644531 -16.160156 5.96875 -15.953125 C 5.707031 -15.867188 5.457031 -15.828125 5.21875 -15.828125 C 4.675781 -15.828125 4.207031 -16.015625 3.8125 -16.390625 C 3.425781 -16.773438 3.234375 -17.238281 3.234375 -17.78125 C 3.234375 -18.226562 3.359375 -18.617188 3.609375 -18.953125 C 3.859375 -19.296875 4.164062 -19.53125 4.53125 -19.65625 C 5.507812 -20.019531 6.519531 -20.3125 7.5625 -20.53125 C 8.601562 -20.75 9.800781 -20.859375 11.15625 -20.859375 C 14.039062 -20.859375 16.269531 -20.15625 17.84375 -18.75 C 19.414062 -17.351562 20.203125 -15.171875 20.203125 -12.203125 L 20.203125 -2.0625 C 20.203125 -1.414062 19.976562 -0.878906 19.53125 -0.453125 C 19.09375 -0.0234375 18.550781 0.1875 17.90625 0.1875 C 17.226562 0.1875 16.671875 -0.0078125 16.234375 -0.40625 C 15.804688 -0.8125 15.59375 -1.273438 15.59375 -1.796875 L 15.59375 -2.578125 C 14.894531 -1.742188 14 -1.035156 12.90625 -0.453125 C 11.8125 0.128906 10.472656 0.421875 8.890625 0.421875 C 7.929688 0.421875 7.007812 0.285156 6.125 0.015625 C 5.238281 -0.253906 4.460938 -0.65625 3.796875 -1.1875 C 3.140625 -1.71875 2.609375 -2.378906 2.203125 -3.171875 C 1.796875 -3.972656 1.59375 -4.890625 1.59375 -5.921875 Z M 6.203125 -6.203125 L 6.203125 -6.125 C 6.203125 -5.132812 6.578125 -4.363281 7.328125 -3.8125 C 8.085938 -3.269531 9.050781 -3 10.21875 -3 C 11 -3 11.726562 -3.101562 12.40625 -3.3125 C 13.082031 -3.519531 13.660156 -3.816406 14.140625 -4.203125 C 14.617188 -4.597656 15 -5.066406 15.28125 -5.609375 C 15.570312 -6.160156 15.71875 -6.757812 15.71875 -7.40625 L 15.71875 -8.8125 C 15.113281 -9.050781 14.414062 -9.25 13.625 -9.40625 C 12.832031 -9.5625 11.96875 -9.640625 11.03125 -9.640625 C 9.476562 -9.640625 8.285156 -9.335938 7.453125 -8.734375 C 6.617188 -8.140625 6.203125 -7.296875 6.203125 -6.203125 Z M 6.203125 -6.203125 "/></g></g></g><g fill="#100f0d" fill-opacity="1"><g transform="translate(188.710413, 63.602525)"><g><path d="M 3.234375 -26.328125 C 3.234375 -26.972656 3.453125 -27.523438 3.890625 -27.984375 C 4.335938 -28.441406 4.898438 -28.671875 5.578125 -28.671875 C 6.253906 -28.671875 6.816406 -28.441406 7.265625 -27.984375 C 7.722656 -27.523438 7.953125 -26.972656 7.953125 -26.328125 L 7.953125 -2.140625 C 7.953125 -1.460938 7.722656 -0.90625 7.265625 -0.46875 C 6.816406 -0.03125 6.253906 0.1875 5.578125 0.1875 C 4.929688 0.1875 4.378906 -0.03125 3.921875 -0.46875 C 3.460938 -0.90625 3.234375 -1.460938 3.234375 -2.140625 Z M 3.234375 -26.328125 "/></g></g></g><g fill="#100f0d" fill-opacity="1"><g transform="translate(195.806114, 63.602525)"><g><path d="M 3.234375 -26.328125 C 3.234375 -26.972656 3.453125 -27.523438 3.890625 -27.984375 C 4.335938 -28.441406 4.898438 -28.671875 5.578125 -28.671875 C 6.253906 -28.671875 6.816406 -28.441406 7.265625 -27.984375 C 7.722656 -27.523438 7.953125 -26.972656 7.953125 -26.328125 L 7.953125 -2.140625 C 7.953125 -1.460938 7.722656 -0.90625 7.265625 -0.46875 C 6.816406 -0.03125 6.253906 0.1875 5.578125 0.1875 C 4.929688 0.1875 4.378906 -0.03125 3.921875 -0.46875 C 3.460938 -0.90625 3.234375 -1.460938 3.234375 -2.140625 Z M 3.234375 -26.328125 "/></g></g></g></svg>