<svg xmlns="http://www.w3.org/2000/svg" xmlns:xlink="http://www.w3.org/1999/xlink" width="150" zoomAndPan="magnify" viewBox="0 0 112.5 37.5" height="50" preserveAspectRatio="xMidYMid meet" version="1.0"><defs><clipPath id="7652857a23"><path d="M 0.492188 0 L 111.511719 0 L 111.511719 37.007812 L 0.492188 37.007812 Z M 0.492188 0 " clip-rule="nonzero"/></clipPath><clipPath id="8df1cc7c0d"><path d="M 12.960938 5 L 62 5 L 62 26 L 12.960938 26 Z M 12.960938 5 " clip-rule="nonzero"/></clipPath><clipPath id="887d48638d"><path d="M 38 22 L 98 22 L 98 37.007812 L 38 37.007812 Z M 38 22 " clip-rule="nonzero"/></clipPath><clipPath id="b52ccf8428"><path d="M 27 9 L 98.816406 9 L 98.816406 37.007812 L 27 37.007812 Z M 27 9 " clip-rule="nonzero"/></clipPath><clipPath id="ab71004cbb"><path d="M 45 0.738281 L 98 0.738281 L 98 29 L 45 29 Z M 45 0.738281 " clip-rule="nonzero"/></clipPath></defs><g clip-path="url(#7652857a23)"><path fill="#ffffff" d="M 0.492188 0 L 111.511719 0 L 111.511719 37.007812 L 0.492188 37.007812 Z M 0.492188 0 " fill-opacity="1" fill-rule="nonzero"/><path fill="#ffffff" d="M 0.492188 0 L 111.511719 0 L 111.511719 37.007812 L 0.492188 37.007812 Z M 0.492188 0 " fill-opacity="1" fill-rule="nonzero"/></g><path fill="#fefefe" d="M 69.136719 16.90625 L 86.703125 16.90625 C 86.96875 16.90625 87.222656 16.957031 87.46875 17.058594 C 87.710938 17.160156 87.929688 17.304688 88.117188 17.492188 C 88.304688 17.683594 88.449219 17.898438 88.550781 18.144531 C 88.652344 18.390625 88.703125 18.644531 88.703125 18.914062 L 88.703125 21.355469 C 88.703125 21.621094 88.652344 21.875 88.550781 22.121094 C 88.449219 22.367188 88.304688 22.585938 88.117188 22.773438 C 87.929688 22.960938 87.710938 23.105469 87.46875 23.207031 C 87.222656 23.308594 86.96875 23.359375 86.703125 23.359375 L 69.136719 23.359375 C 68.871094 23.359375 68.617188 23.308594 68.371094 23.207031 C 68.125 23.105469 67.910156 22.960938 67.722656 22.773438 C 67.53125 22.585938 67.386719 22.367188 67.285156 22.121094 C 67.183594 21.875 67.132812 21.621094 67.132812 21.355469 L 67.132812 18.914062 C 67.132812 18.644531 67.183594 18.390625 67.285156 18.144531 C 67.386719 17.898438 67.53125 17.683594 67.722656 17.492188 C 67.910156 17.304688 68.125 17.160156 68.371094 17.058594 C 68.617188 16.957031 68.871094 16.90625 69.136719 16.90625 Z M 69.136719 16.90625 " fill-opacity="1" fill-rule="evenodd"/><path fill="#fefefe" d="M 55.761719 8.664062 L 67.597656 8.664062 C 67.863281 8.664062 68.121094 8.714844 68.363281 8.816406 C 68.609375 8.917969 68.828125 9.0625 69.015625 9.253906 C 69.203125 9.441406 69.347656 9.65625 69.449219 9.902344 C 69.550781 10.148438 69.601562 10.40625 69.601562 10.671875 L 69.601562 20.597656 C 69.601562 20.863281 69.550781 21.121094 69.449219 21.367188 C 69.347656 21.613281 69.203125 21.828125 69.015625 22.015625 C 68.828125 22.203125 68.609375 22.347656 68.363281 22.453125 C 68.121094 22.554688 67.863281 22.605469 67.597656 22.605469 L 55.761719 22.605469 C 55.496094 22.605469 55.242188 22.554688 54.996094 22.453125 C 54.75 22.347656 54.535156 22.203125 54.347656 22.015625 C 54.160156 21.828125 54.015625 21.613281 53.914062 21.367188 C 53.8125 21.121094 53.761719 20.863281 53.761719 20.597656 L 53.761719 10.671875 C 53.761719 10.40625 53.8125 10.148438 53.914062 9.902344 C 54.015625 9.65625 54.160156 9.441406 54.347656 9.253906 C 54.535156 9.0625 54.75 8.917969 54.996094 8.816406 C 55.242188 8.714844 55.496094 8.664062 55.761719 8.664062 Z M 55.761719 8.664062 " fill-opacity="1" fill-rule="evenodd"/><path fill="#fefefe" d="M 13.929688 6.761719 L 60.839844 6.761719 L 56.300781 24.625 L 13.929688 24.625 Z M 13.929688 6.761719 " fill-opacity="1" fill-rule="evenodd"/><g clip-path="url(#8df1cc7c0d)"><path stroke-linecap="round" transform="matrix(0.0145048, 0, 0, 0.014535, 12.959255, 0.758021)" fill="none" stroke-linejoin="round" d="M 66.904339 413.052474 L 3301.021068 413.052474 L 2988.085466 1642.040468 L 66.904339 1642.040468 Z M 66.904339 413.052474 " stroke="#fefefe" stroke-width="134.033005" stroke-opacity="1" stroke-miterlimit="4"/></g><g clip-path="url(#887d48638d)"><path fill="#fff000" d="M 43.199219 22.597656 L 95.996094 22.597656 C 96.203125 22.597656 96.394531 22.644531 96.566406 22.742188 C 96.738281 22.835938 96.878906 22.972656 96.984375 23.152344 C 97.09375 23.328125 97.160156 23.535156 97.1875 23.765625 C 97.214844 24 97.199219 24.238281 97.140625 24.492188 L 94.640625 35.402344 C 94.585938 35.65625 94.488281 35.894531 94.355469 36.128906 C 94.222656 36.359375 94.0625 36.566406 93.871094 36.742188 C 93.683594 36.921875 93.480469 37.058594 93.265625 37.152344 C 93.050781 37.25 92.835938 37.296875 92.625 37.296875 L 39.828125 37.296875 C 39.621094 37.296875 39.429688 37.25 39.257812 37.152344 C 39.085938 37.058594 38.945312 36.921875 38.839844 36.742188 C 38.730469 36.566406 38.664062 36.359375 38.636719 36.128906 C 38.609375 35.894531 38.625 35.65625 38.683594 35.402344 L 41.183594 24.492188 C 41.238281 24.238281 41.335938 24 41.46875 23.765625 C 41.601562 23.535156 41.761719 23.328125 41.953125 23.152344 C 42.140625 22.972656 42.34375 22.835938 42.558594 22.742188 C 42.773438 22.644531 42.988281 22.597656 43.199219 22.597656 Z M 43.199219 22.597656 " fill-opacity="1" fill-rule="evenodd"/></g><g clip-path="url(#b52ccf8428)"><path stroke-linecap="butt" transform="matrix(0.0145048, 0, -0.00398127, 0.017377, 41.616496, 22.596785)" fill="none" stroke-linejoin="miter" d="M 109.131049 0.0501598 L 3749.094552 0.0501598 C 3763.367862 0.0501598 3777.304362 2.747696 3790.696444 8.367562 C 3804.026824 13.762634 3815.88146 21.630448 3825.991044 31.971002 C 3836.308235 42.086762 3844.156653 54.00088 3849.682204 67.263765 C 3855.269457 80.751445 3857.956026 94.463919 3857.927016 109.075573 L 3857.902733 736.927073 C 3858.143031 751.538726 3855.174137 765.251201 3849.719772 778.738881 C 3844.203705 792.001766 3836.432274 803.915883 3826.012768 814.031643 C 3815.924272 824.372198 3804.079826 832.240011 3790.74874 837.635083 C 3777.479355 843.25495 3763.407848 845.952486 3748.86523 845.952486 L 108.901726 845.952486 C 94.628416 845.952486 80.691917 843.25495 67.299835 837.635083 C 53.969455 832.240011 42.114818 824.372198 32.005234 814.031643 C 21.688043 803.915883 13.839625 792.001766 8.314074 778.738881 C 2.726822 765.251201 0.0402526 751.538726 0.0692623 736.927073 L 0.0935456 109.075573 C -0.146752 94.463919 2.822141 80.751445 8.276507 67.263765 C 13.792573 54.00088 21.564004 42.086762 31.98351 31.971002 C 42.072006 21.630448 53.916452 13.762634 67.247539 8.367562 C 80.516924 2.747696 94.58843 0.0501598 109.131049 0.0501598 Z M 109.131049 0.0501598 " stroke="#fefefe" stroke-width="134.033005" stroke-opacity="1" stroke-miterlimit="4"/></g><path fill="#e62129" d="M 14.527344 6.921875 L 60.839844 6.921875 L 56.359375 24.449219 L 14.527344 24.449219 Z M 14.527344 6.921875 " fill-opacity="1" fill-rule="evenodd"/><path fill="#fefefe" d="M 18.804688 19.972656 C 20.167969 19.972656 21.039062 19.160156 21.300781 17.792969 L 21.546875 16.527344 L 20.210938 16.527344 L 19.949219 17.894531 C 19.835938 18.476562 19.515625 18.707031 19.09375 18.707031 C 18.675781 18.707031 18.441406 18.476562 18.558594 17.894531 L 19.515625 12.9375 C 19.632812 12.355469 19.949219 12.109375 20.371094 12.109375 C 20.792969 12.109375 21.023438 12.355469 20.921875 12.9375 L 20.71875 13.957031 L 22.039062 13.957031 L 22.226562 13.027344 C 22.488281 11.660156 21.9375 10.84375 20.589844 10.84375 C 19.226562 10.84375 18.355469 11.660156 18.09375 13.027344 L 17.164062 17.792969 C 16.90625 19.160156 17.457031 19.972656 18.804688 19.972656 Z M 21.371094 19.84375 L 22.675781 19.84375 L 23.273438 18.113281 L 24.867188 18.113281 L 24.867188 18.082031 L 24.78125 19.84375 L 26.1875 19.84375 L 26.449219 10.976562 L 24.546875 10.976562 Z M 23.664062 16.90625 L 25.128906 12.515625 L 25.15625 12.515625 L 24.925781 16.90625 Z M 28.625 19.972656 C 30.003906 19.972656 30.902344 19.160156 31.175781 17.71875 C 31.394531 16.617188 31.164062 15.902344 30.191406 14.871094 C 29.421875 14.070312 29.21875 13.605469 29.351562 12.953125 C 29.464844 12.355469 29.769531 12.109375 30.207031 12.109375 C 30.65625 12.109375 30.871094 12.355469 30.742188 12.980469 L 30.65625 13.445312 L 31.976562 13.445312 L 32.046875 13.070312 C 32.324219 11.660156 31.816406 10.84375 30.4375 10.84375 C 29.074219 10.84375 28.1875 11.660156 27.929688 13.054688 C 27.726562 14.058594 27.972656 14.785156 28.945312 15.816406 C 29.710938 16.617188 29.902344 17.082031 29.753906 17.820312 C 29.625 18.476562 29.304688 18.707031 28.855469 18.707031 C 28.40625 18.707031 28.175781 18.476562 28.289062 17.835938 L 28.40625 17.226562 L 27.085938 17.226562 L 26.984375 17.734375 C 26.710938 19.160156 27.246094 19.972656 28.625 19.972656 Z M 31.570312 19.84375 L 32.960938 19.84375 L 33.746094 15.84375 L 35.253906 15.84375 L 34.46875 19.84375 L 35.875 19.84375 L 37.601562 10.976562 L 36.195312 10.976562 L 35.5 14.582031 L 33.992188 14.582031 L 34.6875 10.976562 L 33.296875 10.976562 Z M 40.96875 19.972656 C 42.347656 19.972656 43.257812 19.160156 43.535156 17.734375 L 44.433594 13.070312 C 44.710938 11.660156 44.117188 10.84375 42.738281 10.84375 C 41.359375 10.84375 40.460938 11.660156 40.171875 13.070312 L 39.269531 17.734375 C 38.996094 19.160156 39.589844 19.972656 40.96875 19.972656 Z M 41.214844 18.707031 C 40.765625 18.707031 40.53125 18.460938 40.664062 17.820312 L 41.589844 12.980469 C 41.722656 12.355469 42.042969 12.109375 42.492188 12.109375 C 42.941406 12.109375 43.171875 12.355469 43.058594 12.980469 L 42.113281 17.820312 C 41.984375 18.460938 41.664062 18.707031 41.214844 18.707031 Z M 44.070312 19.84375 L 45.320312 19.84375 L 46.582031 13.359375 L 46.597656 13.359375 L 47.03125 19.84375 L 48.46875 19.84375 L 50.191406 10.976562 L 48.945312 10.976562 L 47.914062 16.28125 L 47.886719 16.28125 L 47.554688 10.976562 L 45.785156 10.976562 Z M 44.070312 19.84375 " fill-opacity="1" fill-rule="evenodd"/><g clip-path="url(#ab71004cbb)"><path stroke-linecap="butt" transform="matrix(0.0145048, 0, 0, 0.014535, 12.959255, 0.758021)" fill="none" stroke-linejoin="miter" d="M 4962.919172 295.878022 C 4962.111249 296.953017 4962.111249 299.103007 4961.034018 299.909254 M 4649.983571 1140.017819 L 4578.078402 1141.092814 M 5402.96803 1026.874599 C 5457.098887 1080.893096 5484.029662 1159.905226 5467.871197 1249.129808 C 5440.940423 1410.110304 5289.050853 1539.915947 5128.004821 1539.915947 C 4968.036019 1539.915947 4860.043613 1410.110304 4888.051619 1249.129808 C 4888.051619 1245.098577 4889.12885 1241.067346 4889.936773 1235.96112 C 4868.122845 1253.967286 4846.03961 1270.09221 4822.071221 1284.873391 L 3955.977508 1287.023381 C 3909.925883 1425.96648 3772.040317 1532.122233 3626.883441 1532.122233 C 3467.991871 1532.122233 3359.999464 1403.122837 3386.122316 1242.948587 L 3359.999464 1242.948587 C 3361.076695 1242.948587 3361.076695 1241.873592 3361.076695 1241.067346 C 3371.041082 1180.061382 3399.049088 1123.086649 3437.02148 1073.905629 L 3434.059095 1073.905629 C 3381.005469 1073.905629 3337.108306 1030.90583 3337.108306 976.887333 L 3337.108306 976.081087 C 3337.108306 922.868836 3381.005469 879.062791 3434.059095 879.062791 L 3421.132323 879.062791 C 3459.912638 866.969098 3487.920644 829.881772 3487.920644 786.881973 L 3487.920644 786.075727 C 3487.920644 737.969702 3452.910637 697.92614 3407.12832 690.938672 L 3038.98463 690.938672 C 2985.931004 690.938672 2943.111073 647.132628 2943.111073 593.920377 L 2943.111073 592.039136 C 2943.111073 539.095633 2985.931004 496.095835 3038.98463 496.095835 L 3431.904633 496.095835 L 3463.952255 312.002947 L 3358.11431 312.002947 C 3305.060684 312.002947 3261.971445 269.003148 3261.971445 216.059646 L 3261.971445 213.909656 C 3261.971445 160.966154 3305.060684 116.891361 3358.11431 116.891361 L 3497.077107 116.891361 L 3511.08111 34.116748 L 4103.019537 34.116748 L 3999.066747 639.876411 L 3995.027131 639.876411 L 3995.027131 642.026401 L 4368.01836 642.026401 C 4397.91152 642.026401 4418.109601 672.12626 4414.069985 710.019833 L 4414.877908 711.901074 C 4425.111602 871.000329 4386.061979 1016.930896 4261.911108 1141.89906 L 4578.078402 1141.092814 L 4648.098416 1141.092814 L 4649.983571 1140.017819 C 4652.945956 1135.986588 4656.985572 1131.955357 4659.947957 1128.999121 C 4799.987986 986.02479 4899.093236 790.106958 4909.057623 490.989609 C 4909.057623 471.102202 4909.865546 449.871051 4909.057623 428.908649 C 4909.057623 404.990011 4907.980392 381.071374 4906.095238 355.002746 L 4906.903161 355.002746 L 4906.903161 346.940283 L 4961.034018 299.909254 L 4963.996403 298.028012 L 4975.038021 288.084309 L 4997.929179 266.046912 L 4968.036019 292.11554 L 4962.919172 295.878022 L 4913.905162 338.071575 C 4912.020008 338.877821 4912.020008 325.977882 4910.942777 327.052876 C 4903.940776 330.009113 4896.938774 331.084108 4891.014004 330.009113 C 4884.012003 330.009113 4878.087232 325.977882 4874.047616 320.871655 C 4874.047616 320.065409 4872.970385 317.915419 4871.893154 317.109173 L 4846.03961 249.921988 L 4843.885148 244.009515 C 4834.997993 242.93452 4826.91876 242.128274 4819.916759 239.978284 L 4794.871138 262.015681 C 4794.871138 266.046912 4794.871138 270.078143 4794.871138 274.109374 C 4791.10083 295.878022 4769.017595 313.884188 4746.126436 313.884188 C 4722.96597 313.884188 4707.884736 295.878022 4711.924352 274.109374 C 4714.886738 253.953219 4734.007588 237.022048 4755.013592 234.872058 L 4780.867136 210.95342 C 4774.134442 196.978486 4774.942365 176.016084 4784.906752 148.066215 C 4820.99399 78.997788 4884.012003 54.004155 4965.073634 55.885396 C 5021.089646 65.022854 5053.945191 128.985054 5080.875965 209.878425 C 5084.915582 230.034581 5063.101654 238.903289 5022.9748 242.128274 C 5059.869961 252.878224 5092.994814 295.071776 5123.965205 363.871454 C 5149.010825 356.077741 5185.098063 399.883785 5203.949606 463.03974 C 5223.070456 525.120699 5220.915994 585.051668 5199.102066 600.101598 C 5213.106069 658.957572 5227.110072 725.069763 5240.036844 794.944435 C 5432.053267 887.125254 5509.075282 1019.887132 5428.013651 1026.068353 C 5421.011649 1026.874599 5412.932417 1026.874599 5402.96803 1026.874599 Z M 2876.053444 690.938672 L 2776.948193 690.938672 C 2723.894567 690.938672 2679.997404 735.013466 2679.997404 787.956968 L 2679.997404 789.031963 C 2679.997404 843.05046 2723.894567 886.050259 2776.948193 886.050259 L 2876.053444 886.050259 C 2929.10707 886.050259 2973.004232 843.05046 2973.004232 789.031963 L 2973.004232 787.956968 C 2973.004232 735.013466 2929.10707 690.938672 2876.053444 690.938672 Z M 3120.046262 116.891361 L 2701.003408 116.891361 C 2647.949782 116.891361 2604.05262 160.966154 2604.05262 213.909656 L 2604.05262 216.059646 C 2604.05262 269.003148 2647.949782 312.002947 2701.003408 312.002947 L 3120.046262 312.002947 C 3173.907811 312.002947 3216.997051 269.003148 3216.997051 216.059646 L 3216.997051 213.909656 C 3216.997051 160.966154 3173.907811 116.891361 3120.046262 116.891361 Z M 3215.91982 877.987796 L 3079.919408 877.987796 C 3026.865782 877.987796 2982.968619 922.06259 2982.968619 975.006092 L 2982.968619 976.887333 C 2982.968619 1030.099584 3026.865782 1073.099383 3079.919408 1073.099383 L 3215.91982 1073.099383 C 3270.050677 1073.099383 3312.870609 1030.099584 3312.870609 976.887333 L 3312.870609 975.006092 C 3312.870609 922.06259 3270.050677 877.987796 3215.91982 877.987796 Z M 5015.972798 242.93452 L 5014.895567 249.115741 L 5021.897569 242.93452 C 5020.012415 242.93452 5018.12726 242.93452 5015.972798 242.93452 Z M 5125.042436 976.887333 L 5129.082052 970.974861 Z M 5129.082052 970.974861 C 5133.121668 965.062389 5136.891977 959.956163 5140.931593 954.04369 C 5136.891977 959.956163 5133.121668 965.062389 5129.082052 970.974861 Z M 5147.125671 944.906233 C 5153.050441 937.11252 5158.975212 927.975062 5164.899982 919.106354 C 5158.975212 927.975062 5153.050441 937.11252 5147.125671 944.906233 Z M 5147.125671 944.906233 " stroke="#fefefe" stroke-width="67.015999" stroke-opacity="1" stroke-miterlimit="4"/></g><path fill="#e62129" d="M 84.945312 5.058594 C 84.933594 5.074219 84.933594 5.105469 84.917969 5.117188 Z M 80.40625 17.328125 L 79.363281 17.34375 Z M 91.328125 15.683594 C 92.113281 16.46875 92.503906 17.617188 92.269531 18.914062 C 91.878906 21.253906 89.675781 23.140625 87.339844 23.140625 C 85.019531 23.140625 83.453125 21.253906 83.859375 18.914062 C 83.859375 18.855469 83.875 18.796875 83.886719 18.722656 C 83.570312 18.984375 83.25 19.21875 82.902344 19.433594 L 70.339844 19.464844 C 69.671875 21.484375 67.671875 23.027344 65.566406 23.027344 C 63.261719 23.027344 61.695312 21.152344 62.074219 18.824219 L 61.695312 18.824219 C 61.710938 18.824219 61.710938 18.808594 61.710938 18.796875 C 61.855469 17.910156 62.261719 17.082031 62.8125 16.367188 L 62.769531 16.367188 C 62 16.367188 61.363281 15.742188 61.363281 14.957031 L 61.363281 14.945312 C 61.363281 14.171875 62 13.535156 62.769531 13.535156 L 62.582031 13.535156 C 63.144531 13.359375 63.550781 12.820312 63.550781 12.195312 L 63.550781 12.183594 C 63.550781 11.484375 63.042969 10.902344 62.378906 10.800781 L 57.039062 10.800781 C 56.269531 10.800781 55.648438 10.164062 55.648438 9.390625 L 55.648438 9.363281 C 55.648438 8.59375 56.269531 7.96875 57.039062 7.96875 L 62.738281 7.96875 L 63.203125 5.292969 L 61.667969 5.292969 C 60.898438 5.292969 60.273438 4.667969 60.273438 3.898438 L 60.273438 3.867188 C 60.273438 3.097656 60.898438 2.457031 61.667969 2.457031 L 63.683594 2.457031 L 63.886719 1.253906 L 72.472656 1.253906 L 70.964844 10.058594 L 70.90625 10.058594 L 70.90625 10.089844 L 76.316406 10.089844 C 76.75 10.089844 77.042969 10.527344 76.984375 11.078125 L 76.996094 11.105469 C 77.144531 13.417969 76.578125 15.539062 74.777344 17.355469 L 79.363281 17.34375 L 80.378906 17.34375 L 80.40625 17.328125 C 80.449219 17.269531 80.507812 17.210938 80.550781 17.167969 C 82.582031 15.089844 84.019531 12.242188 84.164062 7.894531 C 84.164062 7.605469 84.175781 7.296875 84.164062 6.992188 C 84.164062 6.644531 84.148438 6.296875 84.121094 5.917969 L 84.132812 5.917969 L 84.132812 5.800781 L 84.917969 5.117188 L 84.960938 5.089844 L 85.121094 4.945312 L 85.453125 4.625 L 85.019531 5.003906 L 84.945312 5.058594 L 84.234375 5.671875 C 84.207031 5.683594 84.207031 5.496094 84.191406 5.511719 C 84.089844 5.554688 83.988281 5.570312 83.902344 5.554688 C 83.800781 5.554688 83.714844 5.496094 83.65625 5.421875 C 83.65625 5.410156 83.640625 5.378906 83.625 5.367188 L 83.25 4.390625 L 83.21875 4.304688 C 83.089844 4.289062 82.972656 4.277344 82.871094 4.246094 L 82.507812 4.566406 C 82.507812 4.625 82.507812 4.683594 82.507812 4.742188 C 82.453125 5.058594 82.132812 5.320312 81.800781 5.320312 C 81.464844 5.320312 81.246094 5.058594 81.304688 4.742188 C 81.347656 4.449219 81.625 4.203125 81.929688 4.171875 L 82.304688 3.824219 C 82.207031 3.621094 82.21875 3.316406 82.363281 2.910156 C 82.886719 1.90625 83.800781 1.542969 84.976562 1.570312 C 85.789062 1.703125 86.265625 2.632812 86.65625 3.808594 C 86.714844 4.101562 86.398438 4.230469 85.816406 4.277344 C 86.351562 4.433594 86.832031 5.046875 87.28125 6.046875 C 87.644531 5.933594 88.167969 6.570312 88.441406 7.488281 C 88.71875 8.390625 88.6875 9.261719 88.371094 9.480469 C 88.574219 10.335938 88.777344 11.296875 88.964844 12.3125 C 91.75 13.652344 92.867188 15.582031 91.691406 15.671875 C 91.589844 15.683594 91.472656 15.683594 91.328125 15.683594 Z M 54.675781 10.800781 L 53.238281 10.800781 C 52.46875 10.800781 51.832031 11.441406 51.832031 12.210938 L 51.832031 12.226562 C 51.832031 13.011719 52.46875 13.636719 53.238281 13.636719 L 54.675781 13.636719 C 55.445312 13.636719 56.082031 13.011719 56.082031 12.226562 L 56.082031 12.210938 C 56.082031 11.441406 55.445312 10.800781 54.675781 10.800781 Z M 58.214844 2.457031 L 52.136719 2.457031 C 51.367188 2.457031 50.730469 3.097656 50.730469 3.867188 L 50.730469 3.898438 C 50.730469 4.667969 51.367188 5.292969 52.136719 5.292969 L 58.214844 5.292969 C 58.996094 5.292969 59.621094 4.667969 59.621094 3.898438 L 59.621094 3.867188 C 59.621094 3.097656 58.996094 2.457031 58.214844 2.457031 Z M 59.605469 13.519531 L 57.632812 13.519531 C 56.863281 13.519531 56.226562 14.160156 56.226562 14.929688 L 56.226562 14.957031 C 56.226562 15.730469 56.863281 16.355469 57.632812 16.355469 L 59.605469 16.355469 C 60.390625 16.355469 61.011719 15.730469 61.011719 14.957031 L 61.011719 14.929688 C 61.011719 14.160156 60.390625 13.519531 59.605469 13.519531 Z M 85.714844 4.289062 L 85.699219 4.378906 L 85.800781 4.289062 C 85.773438 4.289062 85.746094 4.289062 85.714844 4.289062 Z M 87.296875 14.957031 L 87.355469 14.871094 Z M 87.355469 14.871094 C 87.414062 14.785156 87.46875 14.710938 87.527344 14.625 C 87.46875 14.710938 87.414062 14.785156 87.355469 14.871094 Z M 87.617188 14.492188 C 87.703125 14.378906 87.789062 14.246094 87.875 14.117188 C 87.789062 14.246094 87.703125 14.378906 87.617188 14.492188 Z M 87.617188 14.492188 " fill-opacity="1" fill-rule="evenodd"/><path fill="#fefefe" d="M 89.972656 18.882812 C 89.929688 19.152344 89.832031 19.410156 89.6875 19.65625 C 89.542969 19.902344 89.363281 20.121094 89.140625 20.308594 C 88.921875 20.496094 88.679688 20.644531 88.414062 20.746094 C 88.152344 20.847656 87.886719 20.898438 87.617188 20.898438 C 87.351562 20.898438 87.105469 20.847656 86.875 20.746094 C 86.644531 20.644531 86.453125 20.496094 86.296875 20.308594 C 86.140625 20.121094 86.035156 19.902344 85.972656 19.65625 C 85.914062 19.410156 85.90625 19.152344 85.953125 18.882812 C 85.996094 18.617188 86.09375 18.359375 86.238281 18.113281 C 86.382812 17.867188 86.5625 17.648438 86.785156 17.460938 C 87.003906 17.273438 87.246094 17.125 87.511719 17.023438 C 87.777344 16.921875 88.039062 16.871094 88.308594 16.871094 C 88.574219 16.871094 88.820312 16.921875 89.050781 17.023438 C 89.28125 17.125 89.472656 17.273438 89.628906 17.460938 C 89.785156 17.648438 89.894531 17.867188 89.953125 18.113281 C 90.011719 18.359375 90.019531 18.617188 89.972656 18.882812 Z M 89.972656 18.882812 " fill-opacity="1" fill-rule="nonzero"/><path fill="#fefefe" d="M 68.203125 18.765625 C 68.15625 19.035156 68.0625 19.292969 67.917969 19.539062 C 67.773438 19.785156 67.589844 20.003906 67.367188 20.191406 C 67.148438 20.378906 66.90625 20.527344 66.640625 20.628906 C 66.378906 20.730469 66.113281 20.78125 65.847656 20.78125 C 65.578125 20.78125 65.332031 20.730469 65.101562 20.628906 C 64.875 20.527344 64.683594 20.378906 64.527344 20.191406 C 64.371094 20.003906 64.261719 19.785156 64.203125 19.539062 C 64.140625 19.292969 64.132812 19.035156 64.179688 18.765625 C 64.226562 18.5 64.320312 18.242188 64.464844 17.996094 C 64.609375 17.75 64.792969 17.53125 65.011719 17.34375 C 65.234375 17.152344 65.476562 17.007812 65.738281 16.90625 C 66.003906 16.804688 66.269531 16.753906 66.535156 16.753906 C 66.800781 16.753906 67.050781 16.804688 67.277344 16.90625 C 67.507812 17.007812 67.699219 17.152344 67.855469 17.34375 C 68.011719 17.53125 68.121094 17.75 68.179688 17.996094 C 68.238281 18.242188 68.246094 18.5 68.203125 18.765625 Z M 68.203125 18.765625 " fill-opacity="1" fill-rule="nonzero"/><path fill="#e62129" d="M 48.394531 34.902344 L 50.65625 34.902344 C 52.152344 34.902344 52.964844 34.085938 53.09375 32.574219 L 53.527344 27.820312 C 53.660156 26.308594 53.007812 25.496094 51.511719 25.496094 L 49.25 25.496094 Z M 50.003906 33.5625 L 50.613281 26.832031 L 51.367188 26.832031 C 51.847656 26.832031 52.109375 27.082031 52.050781 27.75 L 51.601562 32.648438 C 51.542969 33.316406 51.238281 33.5625 50.757812 33.5625 Z M 53.878906 34.902344 L 57.9375 34.902344 L 58.070312 33.5625 L 55.488281 33.5625 L 55.761719 30.671875 L 57.792969 30.671875 L 57.925781 29.320312 L 55.878906 29.320312 L 56.109375 26.832031 L 58.679688 26.832031 L 58.792969 25.496094 L 54.734375 25.496094 Z M 58.792969 34.902344 L 62.738281 34.902344 L 62.855469 33.5625 L 60.40625 33.5625 L 61.144531 25.496094 L 59.648438 25.496094 Z M 63.449219 34.902344 L 64.945312 34.902344 L 65.800781 25.496094 L 64.304688 25.496094 Z M 67.089844 34.902344 L 69.0625 34.902344 L 71.355469 25.496094 L 69.992188 25.496094 L 68.351562 32.792969 L 68.324219 32.792969 L 68.019531 25.496094 L 66.511719 25.496094 Z M 71.210938 34.902344 L 75.273438 34.902344 L 75.402344 33.5625 L 72.835938 33.5625 L 73.097656 30.671875 L 75.125 30.671875 L 75.257812 29.320312 L 73.210938 29.320312 L 73.445312 26.832031 L 76.011719 26.832031 L 76.128906 25.496094 L 72.066406 25.496094 Z M 76.128906 34.902344 L 77.621094 34.902344 L 77.984375 30.875 L 78.492188 30.875 C 79.171875 30.875 79.40625 31.152344 79.332031 32.023438 L 79.171875 33.753906 C 79.101562 34.523438 79.144531 34.667969 79.203125 34.902344 L 80.710938 34.902344 C 80.59375 34.550781 80.609375 34.21875 80.652344 33.765625 L 80.8125 32.109375 C 80.898438 31.050781 80.726562 30.351562 80 30.117188 L 80 30.089844 C 80.695312 29.828125 81.058594 29.203125 81.144531 28.230469 L 81.203125 27.664062 C 81.335938 26.207031 80.726562 25.496094 79.1875 25.496094 L 76.984375 25.496094 Z M 78.101562 29.523438 L 78.347656 26.832031 L 79.027344 26.832031 C 79.550781 26.832031 79.753906 27.140625 79.695312 27.808594 L 79.636719 28.535156 C 79.566406 29.289062 79.203125 29.523438 78.652344 29.523438 Z M 82.726562 34.902344 L 84.222656 34.902344 L 84.582031 30.902344 L 86.875 25.496094 L 85.425781 25.496094 L 84.105469 28.941406 L 84.078125 28.941406 L 83.367188 25.496094 L 81.785156 25.496094 L 83.089844 30.902344 Z M 82.726562 34.902344 " fill-opacity="1" fill-rule="evenodd"/></svg>